<svg id="e2cb7w4qd4661" xmlns="http://www.w3.org/2000/svg" xmlns:xlink="http://www.w3.org/1999/xlink" viewBox="0 0 999 1080" shape-rendering="geometricPrecision" text-rendering="geometricPrecision"><path id="e2cb7w4qd4662" d="M310,595C309.500000,580.100000,312.700000,567.700000,321,560C338.600000,543.600000,370.800000,555.900000,407,562C426.700000,565.300000,457.100000,566,488,564C523.900000,561.600000,552.100000,566.100000,588,564C597.800000,563.400000,619.400000,562,627,574C636,588.300000,623.200000,618.600000,603,626C596.400000,628.400000,590.900000,627.800000,585,627C574.300000,625.600000,560.500000,624.400000,555,623C542.600000,619.900000,525.100000,615.900000,519,614C493.300000,606.100000,470.700000,602.700000,445,595C433.800000,591.700000,424.200000,590.500000,413,587C405.700000,584.700000,392.600000,580.800000,378,582C369.700000,582.700000,361.700000,584.700000,354,588C345.300000,592,336.700000,596,328,600L310,595Z" clip-rule="evenodd" fill="rgb(242,110,148)" fill-rule="evenodd" stroke="none" stroke-width="1"/><path id="e2cb7w4qd4663" d="M302,499C289.500000,500.100000,277.100000,499.500000,265,497C247.300000,493.400000,232.600000,486.400000,225,481C213.700000,473.100000,203.600000,462,196,448C190.800000,438.400000,186.900000,427.300000,185,415C183,402.300000,184.100000,393,184,393C183.800000,393,182.400000,412.200000,186,434C187.100000,440.400000,188.600000,446.500000,191,453C195.100000,463.800000,199.900000,471.800000,205,478C212.400000,487,222.600000,495.100000,236,501C241.200000,503.300000,251.300000,506.100000,261,508C267.900000,509.300000,274.900000,510.300000,282,511L302,499Z" clip-rule="evenodd" fill="none" fill-rule="evenodd" stroke="none" stroke-width="1"/><path id="e2cb7w4qd4664" d="M635,621C637,629.600000,640.700000,634.500000,643,643C644.700000,649.400000,646.200000,656.300000,646,659C645.700000,662.700000,644.700000,666.600000,647,670C649.400000,673.600000,653.800000,674.400000,657,675C667.300000,676.800000,673.300000,677.500000,675,675C676.400000,672.900000,675.400000,670,675,669C673.400000,665,669.100000,663.800000,667,661C664.500000,657.600000,664.500000,653.400000,665,648C666,637.900000,668.100000,627.700000,670,621C671.500000,615.700000,673,611.100000,675,607C677.300000,602.400000,679.900000,599.700000,682,595C687,584,687.900000,567.900000,681,563C671.600000,556.400000,645.900000,569.500000,637,590C632.900000,599.300000,632.600000,610.400000,635,621Z" clip-rule="evenodd" fill="rgb(25,118,210)" fill-rule="evenodd" stroke="none" stroke-width="1"/><path id="e2cb7w4qd4665" d="M315,496C291.187891,500.700000,266.751885,499.200000,244.291555,491C218.399787,481.600000,203.322251,469.100000,194.379712,456C174.622941,427.300000,182.213700,393.100000,180.861921,393C179.822091,392.900000,175.766754,411.100000,179.822091,433C182.421666,447.200000,186.996918,457.700000,192.300052,466C198.331066,475.400000,206.441741,484,216.216143,491C224.950716,497.300000,247.307062,507,274.446627,510C280.997557,510.700000,287.548486,511,294.203399,511L315,496Z" transform="matrix(1 0 0 1 5.50971336500044 29.00000000000176)" clip-rule="evenodd" fill="rgb(25,118,210)" fill-rule="evenodd" stroke="none" stroke-width="1"/><path id="e2cb7w4qd4666" d="M256,639C258.100000,644.600000,261,653.500000,264,661C265.700000,665,268.900000,672.800000,277,678C284,682.500000,292.300000,683.500000,293,682C293.500000,680.800000,287.300000,676.700000,284,673C281.100000,669.700000,278.400000,665.500000,276,660C272,650.700000,271.200000,641.900000,272,639C273.100000,634.900000,275.400000,631.500000,274,630C272.100000,627.900000,265.100000,633.100000,259,631C255.100000,629.600000,252.800000,625.500000,252,626C251,626.600000,253.800000,633.200000,256,639Z" clip-rule="evenodd" fill="rgb(25,118,210)" fill-rule="evenodd" stroke="none" stroke-width="1"/><path id="e2cb7w4qd4667" d="M754,432C761.100000,427,768,422.100000,775,417C783.200000,411,790.700000,405,799,399C804.900000,394.800000,816.100000,385.600000,825,378C828.700000,374.800000,835.400000,368.500000,840,360C846.200000,348.700000,848.700000,334.500000,847,319C846.600000,315.300000,845.900000,311.600000,845,308C842.700000,306.700000,840.300000,305.300000,838,304L832,307C824.300000,309.800000,817.100000,312.800000,810,316C805.800000,317.900000,802.400000,319.500000,798,321C787,324.700000,778.400000,325.300000,766,326C760.500000,326.300000,754,326.700000,748,327L754,432Z" clip-rule="evenodd" fill="rgb(242,110,148)" fill-rule="evenodd" stroke="none" stroke-width="1"/><path id="e2cb7w4qd4668" d="M648,618C656.600000,615.400000,664.700000,611.300000,672,606C677.600000,601.900000,685.200000,594.300000,692,585C696.200000,579.300000,700.100000,572.600000,704,565C713.200000,547,719.700000,527.400000,721,518C722,510.700000,722.400000,503.300000,722,496L675,528L648,618Z" clip-rule="evenodd" fill="rgb(242,110,148)" fill-rule="evenodd" stroke="none" stroke-width="1"/><path id="e2cb7w4qd4669" d="M308,625C313,627.800000,320.400000,626,330,620C351,606.900000,356.600000,582.100000,357,567C357.200000,560.200000,357,529.300000,341,524C327.800000,519.600000,310.400000,535,303,550C297.100000,561.900000,300.300000,574.700000,301,594C301.600000,610.100000,301,621.100000,308,625Z" clip-rule="evenodd" fill="rgb(25,118,210)" fill-rule="evenodd" stroke="none" stroke-width="1"/><path id="e2cb7w4qd46610" d="M847,310C845.800000,307.600000,843.700000,305.600000,841,305C839.600000,304.700000,836.900000,304.400000,835,306C833.100000,307.600000,832.900000,310.300000,833,312C833.200000,314.800000,834.800000,317.300000,837,319L847,331L847,310Z" clip-rule="evenodd" fill="rgb(25,118,210)" fill-rule="evenodd" stroke="none" stroke-width="1"/><path id="e2cb7w4qd46611" d="M568,462C556.400000,464.600000,545.700000,467.600000,534,470C521,472.700000,504.400000,475.400000,489,478C467.600000,481.600000,444.200000,486.500000,425,489C406,491.500000,383.300000,493.900000,372,494C358.700000,494.100000,339.800000,495.400000,323,496C318.600000,496.200000,305.200000,497.400000,294,502C287.300000,504.700000,280.900000,508.400000,275,513C265.500000,520.400000,257.400000,530,252,541C246.400000,552.500000,243.200000,566.900000,243,584C242.900000,593.700000,243.900000,605.700000,236,613C234.200000,614.600000,229.300000,618.600000,223,619C219,619.300000,216.200000,618.100000,213,620C210.300000,621.500000,208.800000,624.500000,208,627C206.200000,632.800000,208.800000,638.300000,210,641C213.500000,648.900000,214.300000,655.200000,218,663C220.400000,668.100000,223.900000,674,228,680C232.300000,686.200000,236.700000,691.500000,244,694C249.700000,695.900000,256.300000,696,257,694C257.900000,691.700000,247.500000,685.800000,242,679C236.100000,671.700000,230.900000,661.700000,233,652C234,647.300000,236,643.800000,239,642C242.500000,639.900000,246.200000,640.800000,250,641C254.800000,641.300000,258.600000,639.600000,264,639C270.900000,638.200000,278.100000,638.800000,286,637C292.400000,635.500000,298.500000,633.200000,304,630C311.900000,625.500000,317.400000,620.500000,321,616C327.300000,608,327.700000,601.300000,333,593C339,583.600000,346.200000,577.600000,351,575C356.600000,571.900000,368.100000,569.900000,382,570C388.800000,570,395.600000,570.300000,401,571C409.900000,572.100000,423.900000,575.600000,426,576C432.200000,577.200000,444.500000,578.300000,455,579C463,579.500000,470.800000,579.800000,479,580C489.800000,580.200000,538,581.200000,540,581C546.900000,580.300000,563.900000,582.700000,575,585C578.300000,585.700000,583,586.900000,587,591C590.700000,594.800000,592.500000,599.800000,593,604C593.300000,606.600000,592.800000,608.400000,593,611C593.600000,618.200000,599.900000,625.700000,601,628C603.600000,633.800000,603.100000,638,605,644C606.200000,648,607.800000,651,609,655C611.500000,663.500000,612.900000,671,613,678C613,681.900000,612.800000,688.100000,617,692C619.600000,694.400000,623.900000,694.200000,630,695C635.600000,695.700000,639.400000,696.500000,642,694C643.100000,692.900000,644.100000,691.100000,644,689C643.800000,686.100000,641.500000,684.200000,638,681C635.500000,678.800000,633.800000,676.900000,633,675C631.300000,670.900000,632.500000,666.800000,633,665C633.500000,663.300000,636.300000,648,637,644C637.500000,641.300000,638.300000,637.700000,640,634C641.500000,630.900000,644.200000,627.300000,645,626C647.400000,622.100000,649,617.800000,650,613C652.800000,606.900000,655.500000,601,658,595C663.300000,582.400000,666.400000,573.500000,674,564C678.400000,558.500000,685.700000,552.400000,693,546C697.600000,541.900000,701.300000,538,706,534C711.200000,529.600000,717.600000,524.500000,722,515C724.600000,509.500000,725.300000,504.300000,726,500C727.600000,490,731.500000,483.800000,734,474C735.900000,466.700000,737.400000,460.500000,741,453C743.400000,448,746.400000,442.700000,748,441C750.700000,438.200000,753.800000,436.300000,755,432C755.700000,429.700000,755.100000,428.300000,756,426C757.600000,421.900000,760.900000,420.900000,764,418C770.700000,411.700000,771.100000,401.300000,771,398C770.900000,392.600000,768.100000,389.600000,769,384C770.200000,376.500000,776.300000,373.800000,782,366C784.100000,363.200000,787.400000,355.800000,790,349C793.300000,340.400000,794.300000,335.200000,792,333C790.700000,331.800000,786.300000,331.600000,780,333C777,333.700000,773.800000,334.600000,771,333C768.900000,331.700000,767.600000,329.200000,767,326L748,327C739.800000,328,731.800000,329.300000,724,331C718.600000,332.200000,713,333.700000,707,336C694.600000,340.700000,686.400000,346.600000,682,352C679.900000,354.600000,677.200000,359.100000,675,364C672.300000,370,670,377.600000,669,381C666.600000,389.500000,662,399.300000,655,410C646.600000,423,635.600000,434.500000,623,443C607.100000,453.800000,591.400000,456.700000,568,462Z" clip-rule="evenodd" fill="rgb(255,51,102)" fill-rule="evenodd" stroke="none" stroke-width="1"/><path id="e2cb7w4qd46612" d="M717,347C709.900000,348,705.500000,351.600000,701,355C694.900000,359.500000,689.200000,362.600000,683,367C676.400000,371.600000,672.100000,374.800000,669,380C664.800000,386.900000,663.500000,394.900000,664,402C664.700000,411.100000,668.600000,415,670,424C670.800000,429,670.400000,433,671,438C671.800000,444.600000,673.600000,451,675,454C678.400000,461.200000,685.200000,471.400000,695,472C700.500000,472.400000,705.800000,469.600000,710,466C713.600000,462.900000,716.400000,458.300000,719,451C720.300000,447.500000,721.500000,443.100000,722,441C722.500000,438.500000,725.300000,429,727,423C728.300000,418.400000,731.900000,405.500000,733,402C734.300000,397.900000,736.500000,389.200000,737,381C737.400000,374.400000,736.100000,369.600000,736,363C735.900000,358.300000,735.900000,354.300000,733,351C728.600000,346.100000,720.600000,346.500000,717,347Z" clip-rule="evenodd" fill="rgb(25,118,210)" fill-rule="evenodd" stroke="none" stroke-width="1"/><path id="e2cb7w4qd46613" d="M747,339C748.100000,335.400000,749.500000,333.700000,751,333C751.800000,332.600000,753.700000,332,755,333C756.800000,334.300000,756.400000,337.800000,755,340C754.500000,340.800000,753.800000,341.500000,753,342C750.700000,345,748.300000,348,746,351C745.600000,346.900000,745.900000,342.800000,747,339Z" clip-rule="evenodd" fill="rgb(25,118,210)" fill-rule="evenodd" stroke="none" stroke-width="1"/><path id="e2cb7w4qd46614" d="M776,378C780.400000,377.600000,784.700000,377.600000,789,378C794,378.500000,798,379.600000,803,380C807.200000,380.400000,811.600000,380.400000,814,380C821.200000,378.900000,828.400000,375.600000,834,370C836.500000,367.600000,838.800000,364.400000,841,360C845.500000,351,847.400000,340.600000,847,330" clip-rule="evenodd" fill="none" fill-rule="evenodd" stroke="none" stroke-width="1"/><path id="e2cb7w4qd46615" d="" clip-rule="evenodd" fill="none" fill-rule="evenodd" stroke="none" stroke-width="1"/><g id="e2cb7w4qd46616"><g id="e2cb7w4qd46617"/></g><script><![CDATA[!function(t,n){"object"==typeof exports&&"undefined"!=typeof module?module.exports=n():"function"==typeof define&&define.amd?define(n):(t=t||self).__SVGATOR_PLAYER__=n()}(this,(function(){"use strict";function t(n){return(t="function"==typeof Symbol&&"symbol"==typeof Symbol.iterator?function(t){return typeof t}:function(t){return t&&"function"==typeof Symbol&&t.constructor===Symbol&&t!==Symbol.prototype?"symbol":typeof t})(n)}function n(t,n){if(!(t instanceof n))throw new TypeError("Cannot call a class as a function")}function r(t,n){for(var r=0;r<n.length;r++){var e=n[r];e.enumerable=e.enumerable||!1,e.configurable=!0,"value"in e&&(e.writable=!0),Object.defineProperty(t,e.key,e)}}function e(t,n,e){return n&&r(t.prototype,n),e&&r(t,e),t}var i=1e-5,u=Math.abs;function o(t){return t}function a(t,n,r){var e=1-r;return 3*r*e*(t*e+n*r)+r*r*r}function l(){var t=arguments.length>0&&void 0!==arguments[0]?arguments[0]:0,n=arguments.length>1&&void 0!==arguments[1]?arguments[1]:0,r=arguments.length>2&&void 0!==arguments[2]?arguments[2]:1,e=arguments.length>3&&void 0!==arguments[3]?arguments[3]:1;return t<0||t>1||r<0||r>1?null:u(t-n)<=i&&u(r-e)<=i?o:function(o){if(o<=0)return t>0?o*n/t:0===n&&r>0?o*e/r:0;if(o>=1)return r<1?1+(o-1)*(e-1)/(r-1):1===r&&t<1?1+(o-1)*(n-1)/(t-1):1;for(var l,f=0,s=1;f<s;){var c=a(t,r,l=(f+s)/2);if(u(o-c)<i)break;c<o?f=l:s=l}return a(n,e,l)}}function f(){return 1}function s(t){return 1===t?1:0}function c(){var t=arguments.length>0&&void 0!==arguments[0]?arguments[0]:1,n=arguments.length>1&&void 0!==arguments[1]?arguments[1]:0;if(1===t){if(0===n)return s;if(1===n)return f}var r=1/t;return function(t){return t>=1?1:(t+=n*r)-t%r}}function v(t){var n=arguments.length>1&&void 0!==arguments[1]?arguments[1]:2;if(Number.isInteger(t))return t;var r=Math.pow(10,n);return Math.round(t*r)/r}var h=Math.PI/180;function y(t,n,r){return t>=.5?r:n}function d(t,n,r){return 0===t||n===r?n:t*(r-n)+n}function g(t,n,r){var e=d(t,n,r);return e<=0?0:e}function m(t,n,r){return 0===t?n:1===t?r:{x:d(t,n.x,r.x),y:d(t,n.y,r.y)}}function p(t,n,r){return 0===t?n:1===t?r:{x:g(t,n.x,r.x),y:g(t,n.y,r.y)}}function b(t,n,r){var e=function(t,n,r){return Math.round(d(t,n,r))}(t,n,r);return e<=0?0:e>=255?255:e}function w(t,n,r){return 0===t?n:1===t?r:{r:b(t,n.r,r.r),g:b(t,n.g,r.g),b:b(t,n.b,r.b),a:d(t,null==n.a?1:n.a,null==r.a?1:r.a)}}function A(t,n,r){if(0===t)return n;if(1===t)return r;var e=n.length;if(e!==r.length)return y(t,n,r);for(var i=[],u=0;u<e;u++)i.push(w(t,n[u],r[u]));return i}function x(t,n,r){var e=n.length;if(e!==r.length)return y(t,n,r);for(var i=new Array(e),u=0;u<e;u++)i[u]=d(t,n[u],r[u]);return i}function k(t,n){for(var r=[],e=0;e<t;e++)r.push(n);return r}function S(t,n){if(--n<=0)return t;var r=(t=Object.assign([],t)).length;do{for(var e=0;e<r;e++)t.push(t[e])}while(--n>0);return t}var _=6,M=/\.0+$/g;function I(t){return Number.isInteger(t)?t+"":t.toFixed(_).replace(M,"")}function E(t){var n=arguments.length>1&&void 0!==arguments[1]?arguments[1]:" ";return t&&t.length?t.map(I).join(n):""}function F(t){return I(t.x)+","+I(t.y)}function B(t){return t?null==t.a||t.a>=1?"rgb("+t.r+","+t.g+","+t.b+")":"rgba("+t.r+","+t.g+","+t.b+","+t.a+")":"transparent"}var j={f:null,i:p,u:function(t,n){return function(r){var e=n(r);t.setAttribute("rx",I(e.x)),t.setAttribute("ry",I(e.y))}}},q={f:null,i:function(t,n,r){return 0===t?n:1===t?r:{width:g(t,n.width,r.width),height:g(t,n.height,r.height)}},u:function(t,n){return function(r){var e=n(r);t.setAttribute("width",I(e.width)),t.setAttribute("height",I(e.height))}}},P=Math.sin,O=Math.cos,z=Math.acos,L=Math.asin,C=Math.tan,R=Math.atan2,T=Math.PI/180,V=180/Math.PI,D=Math.sqrt,N=function(){function t(){var r=arguments.length>0&&void 0!==arguments[0]?arguments[0]:1,e=arguments.length>1&&void 0!==arguments[1]?arguments[1]:0,i=arguments.length>2&&void 0!==arguments[2]?arguments[2]:0,u=arguments.length>3&&void 0!==arguments[3]?arguments[3]:1,o=arguments.length>4&&void 0!==arguments[4]?arguments[4]:0,a=arguments.length>5&&void 0!==arguments[5]?arguments[5]:0;n(this,t),this.m=[r,e,i,u,o,a],this.i=null,this.w=null,this.s=null}return e(t,[{key:"point",value:function(t,n){var r=this.m;return{x:r[0]*t+r[2]*n+r[4],y:r[1]*t+r[3]*n+r[5]}}},{key:"translateSelf",value:function(){var t=arguments.length>0&&void 0!==arguments[0]?arguments[0]:0,n=arguments.length>1&&void 0!==arguments[1]?arguments[1]:0;if(!t&&!n)return this;var r=this.m;return r[4]+=r[0]*t+r[2]*n,r[5]+=r[1]*t+r[3]*n,this.w=this.s=this.i=null,this}},{key:"rotateSelf",value:function(){var t=arguments.length>0&&void 0!==arguments[0]?arguments[0]:0;if(t%=360){var n=P(t*=T),r=O(t),e=this.m,i=e[0],u=e[1];e[0]=i*r+e[2]*n,e[1]=u*r+e[3]*n,e[2]=e[2]*r-i*n,e[3]=e[3]*r-u*n,this.w=this.s=this.i=null}return this}},{key:"scaleSelf",value:function(){var t=arguments.length>0&&void 0!==arguments[0]?arguments[0]:1,n=arguments.length>1&&void 0!==arguments[1]?arguments[1]:1;if(1!==t||1!==n){var r=this.m;r[0]*=t,r[1]*=t,r[2]*=n,r[3]*=n,this.w=this.s=this.i=null}return this}},{key:"skewSelf",value:function(t,n){if(n%=360,(t%=360)||n){var r=this.m,e=r[0],i=r[1],u=r[2],o=r[3];t&&(t=C(t*T),r[2]+=e*t,r[3]+=i*t),n&&(n=C(n*T),r[0]+=u*n,r[1]+=o*n),this.w=this.s=this.i=null}return this}},{key:"resetSelf",value:function(){var t=arguments.length>0&&void 0!==arguments[0]?arguments[0]:1,n=arguments.length>1&&void 0!==arguments[1]?arguments[1]:0,r=arguments.length>2&&void 0!==arguments[2]?arguments[2]:0,e=arguments.length>3&&void 0!==arguments[3]?arguments[3]:1,i=arguments.length>4&&void 0!==arguments[4]?arguments[4]:0,u=arguments.length>5&&void 0!==arguments[5]?arguments[5]:0,o=this.m;return o[0]=t,o[1]=n,o[2]=r,o[3]=e,o[4]=i,o[5]=u,this.w=this.s=this.i=null,this}},{key:"recomposeSelf",value:function(){var t=arguments.length>0&&void 0!==arguments[0]?arguments[0]:null,n=arguments.length>1&&void 0!==arguments[1]?arguments[1]:null,r=arguments.length>2&&void 0!==arguments[2]?arguments[2]:null,e=arguments.length>3&&void 0!==arguments[3]?arguments[3]:null,i=arguments.length>4&&void 0!==arguments[4]?arguments[4]:null;return this.isIdentity||this.resetSelf(),t&&(t.x||t.y)&&this.translateSelf(t.x,t.y),n&&this.rotateSelf(n),r&&(r.x&&this.skewSelf(r.x,0),r.y&&this.skewSelf(0,r.y)),!e||1===e.x&&1===e.y||this.scaleSelf(e.x,e.y),i&&(i.x||i.y)&&this.translateSelf(i.x,i.y),this}},{key:"decompose",value:function(){var t=arguments.length>0&&void 0!==arguments[0]?arguments[0]:0,n=arguments.length>1&&void 0!==arguments[1]?arguments[1]:0,r=this.m,e=r[0]*r[0]+r[1]*r[1],i=[[r[0],r[1]],[r[2],r[3]]],u=D(e);if(0===u)return{origin:{x:r[4],y:r[5]},translate:{x:t,y:n},scale:{x:0,y:0},skew:{x:0,y:0},rotate:0};i[0][0]/=u,i[0][1]/=u;var o=r[0]*r[3]-r[1]*r[2]<0;o&&(u=-u);var a=i[0][0]*i[1][0]+i[0][1]*i[1][1];i[1][0]-=i[0][0]*a,i[1][1]-=i[0][1]*a;var l=D(i[1][0]*i[1][0]+i[1][1]*i[1][1]);if(0===l)return{origin:{x:r[4],y:r[5]},translate:{x:t,y:n},scale:{x:u,y:0},skew:{x:0,y:0},rotate:0};i[1][0]/=l,i[1][1]/=l,a/=l;var f=0;return i[1][1]<0?(f=z(i[1][1])*V,i[0][1]<0&&(f=360-f)):f=L(i[0][1])*V,o&&(f=-f),a=R(a,D(i[0][0]*i[0][0]+i[0][1]*i[0][1]))*V,{origin:{x:r[4],y:r[5]},translate:{x:t,y:n},scale:{x:u,y:l},skew:{x:a,y:0},rotate:f}}},{key:"toString",value:function(){return null===this.s&&(this.s="matrix("+this.m.map($).join(" ")+")"),this.s}},{key:"determinant",get:function(){var t=this.m;return t[0]*t[3]-t[1]*t[2]}},{key:"isIdentity",get:function(){if(null===this.i){var t=this.m;this.i=1===t[0]&&0===t[1]&&0===t[2]&&1===t[3]&&0===t[4]&&0===t[5]}return this.i}}]),t}(),G=/\.0+$/;function $(t){return Number.isInteger(t)?t:t.toFixed(14).replace(G,"")}Object.freeze({M:2,L:2,Z:0,H:1,V:1,C:6,Q:4,T:2,S:4,A:7});function H(t,n,r){return t+(n-t)*r}function Q(t,n,r){var e=arguments.length>3&&void 0!==arguments[3]&&arguments[3],i={x:H(t.x,n.x,r),y:H(t.y,n.y,r)};return e&&(i.a=function(t,n){return Math.atan2(n.y-t.y,n.x-t.x)}(t,n)),i}function U(t,n,r,e){var i=1-e;return i*i*t+2*i*e*n+e*e*r}function Y(t,n,r,e){return 2*(1-e)*(n-t)+2*e*(r-n)}function Z(t,n,r,e){var i=arguments.length>4&&void 0!==arguments[4]&&arguments[4],u={x:U(t.x,n.x,r.x,e),y:U(t.y,n.y,r.y,e)};return i&&(u.a=function(t,n,r,e){return Math.atan2(Y(t.y,n.y,r.y,e),Y(t.x,n.x,r.x,e))}(t,n,r,e)),u}function J(t,n,r,e,i){var u=i*i;return i*u*(e-t+3*(n-r))+3*u*(t+r-2*n)+3*i*(n-t)+t}function K(t,n,r,e,i){var u=1-i;return 3*(u*u*(n-t)+2*u*i*(r-n)+i*i*(e-r))}function W(t,n,r,e,i){var u=arguments.length>5&&void 0!==arguments[5]&&arguments[5],o={x:J(t.x,n.x,r.x,e.x,i),y:J(t.y,n.y,r.y,e.y,i)};return u&&(o.a=function(t,n,r,e,i){return Math.atan2(K(t.y,n.y,r.y,e.y,i),K(t.x,n.x,r.x,e.x,i))}(t,n,r,e,i)),o}function X(t,n,r){var e,i=arguments.length>3&&void 0!==arguments[3]&&arguments[3];if(nt(n)){if(null!=(e=r).start&&!nt(e))return Z(n,r.start,r,t,i)}else if(nt(r)){if(n.end)return Z(n,n.end,r,t,i)}else{if(n.end)return r.start?W(n,n.end,r.start,r,t,i):Z(n,n.end,r,t,i);if(r.start)return Z(n,r.start,r,t,i)}return Q(n,r,t,i)}function tt(t,n,r){var e=X(t,n,r,!0);return e.a=function(t){return arguments.length>1&&void 0!==arguments[1]&&arguments[1]?t+Math.PI:t}(e.a)/h,e}function nt(t){return!t.type||"corner"===t.type}var rt=new N;var et={f:function(t){return t?t.join(" "):""},i:function(n,r,e){if(0===n)return r;if(1===n)return e;var i=r.length;if(i!==e.length)return y(n,r,e);for(var u,o=new Array(i),a=0;a<i;a++){if((u=t(r[a]))!==t(e[a]))return y(n,r,e);if("number"===u)o[a]=d(n,r[a],e[a]);else{if(r[a]!==e[a])return y(n,r,e);o[a]=r[a]}}return o}},it={f:null,i:x,u:function(t,n){return function(r){var e=n(r);t.setAttribute("x1",I(e[0])),t.setAttribute("y1",I(e[1])),t.setAttribute("x2",I(e[2])),t.setAttribute("y2",I(e[3]))}}},ut={f:I,i:d},ot={f:I,i:function(t,n,r){var e=d(t,n,r);return e<=0?0:e>=1?1:e}},at={f:E,i:function(t,n,r){var e,i,u,o=n.length,a=r.length;if(o!==a)if(0===o)n=k(o=a,0);else if(0===a)a=o,r=k(o,0);else{var l=(u=(e=o)*(i=a)/function(t,n){for(var r;n;)r=n,n=t%n,t=r;return t||1}(e,i))<0?-u:u;n=S(n,Math.floor(l/o)),r=S(r,Math.floor(l/a)),o=a=l}for(var f=[],s=0;s<o;s++)f.push(v(g(t,n[s],r[s]),6));return f}};function lt(t,n,r,e,i,u,o,a){return n=function(t,n,r){for(var e,i,u,o=t.length-1,a={},l=0;l<=o;l++)(e=t[l]).e&&(e.e=n(e.e)),e.v&&"g"===(i=e.v).t&&i.r&&(u=r.getElementById(i.r))&&(a[i.r]=u.querySelectorAll("stop"));return a}(t,e,a),function(e){var i,u=r(e,t,ft);return u?"c"===u.t?B(u.v):"g"===u.t?(n[u.r]&&function(t,n){for(var r=0,e=t.length;r<e;r++)t[r].setAttribute("stop-color",B(n[r]))}(n[u.r],u.v),(i=u.r)?"url(#"+i+")":"none"):"none":"none"}}function ft(t,n,r){if(0===t)return n;if(1===t)return r;if(n&&r){var e=n.t;if(e===r.t)switch(n.t){case"c":return{t:e,v:w(t,n.v,r.v)};case"g":if(n.r===r.r)return{t:e,v:A(t,n.v,r.v),r:n.r}}}return y(t,n,r)}var st={blur:p,brightness:g,contrast:g,"drop-shadow":function(t,n,r){return 0===t?n:1===t?r:{blur:p(t,n.blur,r.blur),offset:m(t,n.offset,r.offset),color:w(t,n.color,r.color)}},grayscale:g,"hue-rotate":d,invert:g,opacity:g,saturate:g,sepia:g};function ct(t,n,r){if(0===t)return n;if(1===t)return r;var e=n.length;if(e!==r.length)return y(t,n,r);for(var i,u=[],o=0;o<e;o++){if(n[o].type!==r[o].type)return n;if(!(i=st[n[o].type]))return y(t,n,r);u.push({type:n.type,value:i(t,n[o].value,r[o].value)})}return u}var vt={blur:function(t){return t?function(n){t.setAttribute("stdDeviation",F(n))}:null},brightness:function(t,n,r){return(t=yt(r,n))?function(n){n=I(n),t.map((function(t){return t.setAttribute("slope",n)}))}:null},contrast:function(t,n,r){return(t=yt(r,n))?function(n){var r=I((1-n)/2);n=I(n),t.map((function(t){t.setAttribute("slope",n),t.setAttribute("intercept",r)}))}:null},"drop-shadow":function(t,n,r){var e=r.getElementById(n+"-blur");if(!e)return null;var i=r.getElementById(n+"-offset");if(!i)return null;var u=r.getElementById(n+"-flood");return u?function(t){e.setAttribute("stdDeviation",F(t.blur)),i.setAttribute("dx",I(t.offset.x)),i.setAttribute("dy",I(t.offset.y)),u.setAttribute("flood-color",B(t.color))}:null},grayscale:function(t){return t?function(n){t.setAttribute("values",E(function(t){return[.2126+.7874*(t=1-t),.7152-.7152*t,.0722-.0722*t,0,0,.2126-.2126*t,.7152+.2848*t,.0722-.0722*t,0,0,.2126-.2126*t,.7152-.7152*t,.0722+.9278*t,0,0,0,0,0,1,0]}(n)))}:null},"hue-rotate":function(t){return t?function(n){return t.setAttribute("values",I(n))}:null},invert:function(t,n,r){return(t=yt(r,n))?function(n){n=I(n)+" "+I(1-n),t.map((function(t){return t.setAttribute("tableValues",n)}))}:null},opacity:function(t,n,r){return(t=r.getElementById(n+"-A"))?function(n){return t.setAttribute("tableValues","0 "+I(n))}:null},saturate:function(t){return t?function(n){return t.setAttribute("values",I(n))}:null},sepia:function(t){return t?function(n){return t.setAttribute("values",E(function(t){return[.393+.607*(t=1-t),.769-.769*t,.189-.189*t,0,0,.349-.349*t,.686+.314*t,.168-.168*t,0,0,.272-.272*t,.534-.534*t,.131+.869*t,0,0,0,0,0,1,0]}(n)))}:null}};var ht=["R","G","B"];function yt(t,n){var r=ht.map((function(r){return t.getElementById(n+"-"+r)||null}));return-1!==r.indexOf(null)?null:r}var dt={fill:lt,"fill-opacity":ot,stroke:lt,"stroke-opacity":ot,"stroke-width":ut,"stroke-dashoffset":{f:I,i:d},"stroke-dasharray":at,opacity:ot,transform:function(n,r,e,i){if(!(n=function(n,r){if(!n||"object"!==t(n))return null;var e=!1;for(var i in n)n.hasOwnProperty(i)&&(n[i]&&n[i].length?(n[i].forEach((function(t){t.e&&(t.e=r(t.e))})),e=!0):delete n[i]);return e?n:null}(n,i)))return null;var u=function(t,i,u){var o=arguments.length>3&&void 0!==arguments[3]?arguments[3]:null;return n[t]?e(i,n[t],u):r&&r[t]?r[t]:o};return r&&r.a&&n.o?function(t){var r=e(t,n.o,tt);return rt.recomposeSelf(r,u("r",t,d,0)+r.a,u("k",t,m),u("s",t,m),u("t",t,m)).toString()}:function(t){return rt.recomposeSelf(u("o",t,X,null),u("r",t,d,0),u("k",t,m),u("s",t,m),u("t",t,m)).toString()}},"#filter":function(t,n,r,e,i,u,o,a){if(!n.items||!t||!t.length)return null;var l=function(t,n){var r=(t=t.map((function(t){return t&&vt[t[0]]?(n.getElementById(t[1]),vt[t[0]](n.getElementById(t[1]),t[1],n)):null}))).length;return function(n){for(var e=0;e<r;e++)t[e]&&t[e](n[e].value)}}(n.items,a);return l?(t=function(t,n){return t.map((function(t){return t.e=n(t.e),t}))}(t,e),function(n){l(r(n,t,ct))}):null},"#line":it,points:{f:E,i:x},d:et,r:ut,"#size":q,"#radius":j,_:function(t,n){if(Array.isArray(t))for(var r=0;r<t.length;r++)this[t[r]]=n;else this[t]=n}},gt=function(){function t(r){n(this,t),this.list=r,this.length=r.length}return e(t,[{key:"setAttribute",value:function(t,n){for(var r=this.list,e=0;e<this.length;e++)r[e].setAttribute(t,n)}},{key:"removeAttribute",value:function(t){for(var n=this.list,r=0;r<this.length;r++)n[r].removeAttribute(t)}},{key:"style",value:function(t,n){for(var r=this.list,e=0;e<this.length;e++)r[e].style[t]=n}}]),t}(),mt=/-./g,pt=function(t,n){return n.toUpperCase()};function bt(t){return"function"==typeof t?t:y}function wt(t){return t?"function"==typeof t?t:Array.isArray(t)?function(t){var n=arguments.length>1&&void 0!==arguments[1]?arguments[1]:o;if(!Array.isArray(t))return n;switch(t.length){case 1:return c(t[0])||n;case 2:return c(t[0],t[1])||n;case 4:return l(t[0],t[1],t[2],t[3])||n}return n}(t,null):function(t,n){var r=arguments.length>2&&void 0!==arguments[2]?arguments[2]:o;switch(t){case"linear":return o;case"steps":return c(n.steps||1,n.jump||0)||r;case"bezier":case"cubic-bezier":return l(n.x1||0,n.y1||0,n.x2||0,n.y2||0)||r}return r}(t.type,t.value,null):null}function At(t,n,r){var e=arguments.length>3&&void 0!==arguments[3]&&arguments[3],i=n.length-1;if(t<=n[0].t)return e?[0,0,n[0].v]:n[0].v;if(t>=n[i].t)return e?[i,1,n[i].v]:n[i].v;var u,o=n[0],a=null;for(u=1;u<=i;u++){if(!(t>n[u].t)){a=n[u];break}o=n[u]}return null==a?e?[i,1,n[i].v]:n[i].v:o.t===a.t?e?[u,1,a.v]:a.v:(t=(t-o.t)/(a.t-o.t),o.e&&(t=o.e(t)),e?[u,t,r(t,o.v,a.v)]:r(t,o.v,a.v))}function xt(t,n){var r=arguments.length>2&&void 0!==arguments[2]?arguments[2]:null;return t&&t.length?"function"!=typeof n?null:("function"!=typeof r&&(r=null),function(e){var i=At(e,t,n);return null!=i&&r&&(i=r(i)),i}):null}function kt(t,n){return t.t-n.t}function St(n,r,e,i,u){var o,a="@"===e[0],l="#"===e[0],f=dt[e],s=y;switch(a?(o=e.substr(1),e=o.replace(mt,pt)):l&&(e=e.substr(1)),t(f)){case"function":if(s=f(i,u,At,wt,e,a,r,n),l)return s;break;case"string":s=xt(i,bt(f));break;case"object":if((s=xt(i,bt(f.i),f.f))&&"function"==typeof f.u)return f.u(r,s,e,a,n)}return s?function(t,n,r){if(arguments.length>3&&void 0!==arguments[3]&&arguments[3])return t instanceof gt?function(e){return t.style(n,r(e))}:function(e){return t.style[n]=r(e)};if(Array.isArray(n)){var e=n.length;return function(i){var u=r(i);if(null==u)for(var o=0;o<e;o++)t[o].removeAttribute(n);else for(var a=0;a<e;a++)t[a].setAttribute(n,u)}}return function(e){var i=r(e);null==i?t.removeAttribute(n):t.setAttribute(n,i)}}(r,e,s,a):null}function _t(n,r,e,i){if(!i||"object"!==t(i))return null;var u=null,o=null;return Array.isArray(i)?o=function(t){if(!t||!t.length)return null;for(var n=0;n<t.length;n++)t[n].e&&(t[n].e=wt(t[n].e));return t.sort(kt)}(i):(o=i.keys,u=i.data||null),o?St(n,r,e,o,u):null}function Mt(t,n,r){if(!r)return null;var e=[];for(var i in r)if(r.hasOwnProperty(i)){var u=_t(t,n,i,r[i]);u&&e.push(u)}return e.length?e:null}function It(t,n){if(!n.duration||n.duration<0)return null;var r=function(t,n){if(!n)return null;var r=[];if(Array.isArray(n))for(var e=n.length,i=0;i<e;i++){var u=n[i];if(2===u.length){var o=null;if("string"==typeof u[0])o=t.getElementById(u[0]);else if(Array.isArray(u[0])){o=[];for(var a=0;a<u[0].length;a++)if("string"==typeof u[0][a]){var l=t.getElementById(u[0][a]);l&&o.push(l)}o=o.length?1===o.length?o[0]:new gt(o):null}if(o){var f=Mt(t,o,u[1]);f&&(r=r.concat(f))}}}else for(var s in n)if(n.hasOwnProperty(s)){var c=t.getElementById(s);if(c){var v=Mt(t,c,n[s]);v&&(r=r.concat(v))}}return r.length?r:null}(t,n.elements);return r?function(t,n){var r=arguments.length>2&&void 0!==arguments[2]?arguments[2]:1/0,e=arguments.length>3&&void 0!==arguments[3]?arguments[3]:1,i=arguments.length>4&&void 0!==arguments[4]&&arguments[4],u=arguments.length>5&&void 0!==arguments[5]?arguments[5]:1,o=t.length,a=e>0?n:0;i&&r%2==0&&(a=n-a);var l=null;return function(f,s){var c=f%n,v=1+(f-c)/n;s*=e,i&&v%2==0&&(s=-s);var h=!1;if(v>r)c=a,h=!0,-1===u&&(c=e>0?0:n);else if(s<0&&(c=n-c),c===l)return!1;l=c;for(var y=0;y<o;y++)t[y](c);return h}}(r,n.duration,n.iterations||1/0,n.direction||1,!!n.alternate,n.fill||1):null}var Et=function(){function t(r){var e=arguments.length>1&&void 0!==arguments[1]?arguments[1]:{};n(this,t),this._id=0,this._running=!1,this._animations=r,this.direction=e.direction||1,this.speed=e.speed||1,this.fps=e.fps||100,this.offset=e.offset||0}return e(t,[{key:"_start",value:function(){var t=this,n=arguments.length>0&&void 0!==arguments[0]?arguments[0]:0,r=-1/0,e=null,i={},u=function u(o){t._running=!0,null==e&&(e=o);var a=Math.round((o-e+n)*t.speed),l=t.fps?1e3/t.fps:0;if(a>r+l){t.offset=a,r=a;for(var f=t._animations,s=f.length,c=0,v=0;v<s;v++)i[v]?c++:(i[v]=f[v](a,t.direction),i[v]&&c++);if(c===s)return void t._stop()}t._id=window.requestAnimationFrame(u)};this._id=window.requestAnimationFrame(u)}},{key:"_stop",value:function(){this._id&&window.cancelAnimationFrame(this._id),this._running=!1}},{key:"play",value:function(){this._running||this._start(this.offset)}},{key:"stop",value:function(){this._stop(),this.offset=0;var t=this.direction,n=this._animations;requestAnimationFrame((function(){for(var r=0;r<n.length;r++)n[r](0,t)}))}},{key:"restart",value:function(){this._stop(),this.offset=0,this._start()}},{key:"pause",value:function(){this._stop()}},{key:"reverse",value:function(){this.direction=-this.direction}}],[{key:"build",value:function(n){if(!(n=function(t){if(!t||!t.root||!Array.isArray(t.animations))return null;var n=window.document.getElementById(t.root);if(!n)return null;var r=t.animations.map((function(t){return It(n,t)})).filter((function(t){return!!t}));return r.length?{element:n,animations:r,options:t.options||void 0}:null}(n)))return null;var r=n.element,e=n.options||{},i=new t(n.animations,n.options);return function(t,n,r){var e=arguments.length>3&&void 0!==arguments[3]?arguments[3]:null;if("click"===r){return void n.addEventListener("click",(function r(){n.removeEventListener("click",r),t.play()}))}if("hover"===r)return n.addEventListener("mouseenter",(function(){return t.play()})),void n.addEventListener("mouseleave","freeze"===e?function(){return t.pause()}:function(){return t.stop()});t.play()}(i,r,e.start,e.hover),i}}]),t}();return function(){for(var t=0,n=["ms","moz","webkit","o"],r=0;r<n.length&&!window.requestAnimationFrame;++r)window.requestAnimationFrame=window[n[r]+"RequestAnimationFrame"],window.cancelAnimationFrame=window[n[r]+"CancelAnimationFrame"]||window[n[r]+"CancelRequestAnimationFrame"];window.requestAnimationFrame||(window.requestAnimationFrame=function(n){var r=Date.now(),e=Math.max(0,16-(r-t)),i=window.setTimeout((function(){n(r+e)}),e);return t=r+e,i},window.cancelAnimationFrame=window.clearTimeout)}(),Et}));
__SVGATOR_PLAYER__.build({"root":"e2cb7w4qd4661","animations":[{"duration":500,"direction":1,"iterations":0,"fill":1,"alternate":false,"elements":{"e2cb7w4qd4665":{"transform":{"data":{"o":{"x":5.509713365000437,"y":29.000000000001762,"type":"corner"}},"keys":{"k":[{"t":0,"v":{"x":0,"y":0}},{"t":200,"v":{"x":4,"y":0}},{"t":400,"v":{"x":0,"y":0}}]}}}}}],"options":{"start":"load","hover":"freeze"}})]]></script></svg>