<svg id="eztpbppb6do1" xmlns="http://www.w3.org/2000/svg" xmlns:xlink="http://www.w3.org/1999/xlink" viewBox="0 0 300 300" shape-rendering="geometricPrecision" text-rendering="geometricPrecision"><g id="eztpbppb6do2" transform="matrix(1 0 0 1 146.63951100000000 2.00387572999989)"><path id="eztpbppb6do3" d="M704.130000,360.300000L669.130000,410.300000C670.510000,414.430000,670.480000,418.900000,668.130000,422.300000C667.380000,423.380000,665.550000,425.700000,664.130000,425.300000C662.130000,424.730000,661.870000,419.030000,662.130000,413.300000L667.130000,402.300000L695.130000,350.300000L700.130000,343.300000Z" transform="matrix(1 0 0 1 -638.84500000000003 -277.84100000000001)" fill="rgb(242,110,148)" fill-rule="evenodd" stroke="none" stroke-width="1"/><path id="eztpbppb6do4" d="M91.540000,35.500000C62.140000,35.500000,113.600000,57,77.540000,57" fill="none" stroke="rgb(242,110,148)" stroke-width="6" stroke-linecap="round" stroke-linejoin="round"/><path id="eztpbppb6do5" d="M707.520871,351.355846L723.985435,312.060000L731.584465,320.150321C733.319577,322.068883,734.978699,323.964330,736.650485,325.929122C737.916990,327.466283,739.183495,328.991887,740.450000,330.552163Q735.383980,339.220364,730.317960,347.888566C727.603585,349.501514,724.604323,350.674515,721.452425,351.355846C716.865558,352.294718,712.107738,352.294718,707.520871,351.355846Z" transform="matrix(1 0 0 1 -617.90999999999997 -239.06000000000000)" fill="rgb(13,71,161)" fill-rule="evenodd" stroke="none" stroke-width="1"/><path id="eztpbppb6do6" d="M703.450000,405.060000C706.600000,423,709.890000,440.430000,713.450000,458.060000C716.060000,471.060000,719.330000,487.250000,721.450000,496.060000C722.900000,502.130000,724.190000,507.940000,725.450000,514.060000C725.790000,515.740000,726.120000,517.400000,726.450000,519.060000L726.450000,525.060000C727.559322,526.328232,728.921887,527.350156,730.450000,528.060000C732.297640,529.008280,734.394682,529.357787,736.450000,529.060000C737.937635,528.761402,739.318541,528.070949,740.450000,527.060000L731.450000,522.060000L730.450000,510.060000C729.730000,490.560000,728.450000,471.480000,726.450000,452.060000C724.840000,436.230000,722.870000,420.800000,720.450000,405.060000L719.450000,399.060000L707.450000,396.060000Z" transform="matrix(1 0 0 1 -617.90999999999997 -237.06000000000000)" fill="rgb(242,110,148)" fill-rule="evenodd" stroke="none" stroke-width="1"/><path id="eztpbppb6do7" d="M678.450000,405.060000C677.800001,417.384769,677.800001,429.735231,678.450000,442.060000C678.760000,448.120000,679.730000,458.570000,680.450000,467.060000C680.930000,472.810000,681.790000,485,682.450000,494.060000C683.120000,503.370000,683.790000,512.720000,684.450000,522.060000L680.450000,527.060000C684.035073,525.422081,688.219061,525.802443,691.450000,528.060000L689.450000,524.060000L689.450000,517.060000C690.370000,504.180000,691.020000,491.730000,691.450000,479.060000C691.590000,474.720000,692.090000,455,692.450000,448.060000C692.820000,440.820000,693.730000,428.190000,694.450000,418.060000C694.780000,413.410000,695.110000,408.730000,695.450000,404.060000L694.450000,398.060000L680.450000,400.060000Z" transform="matrix(1 0 0 1 -617.90999999999997 -237.06000000000000)" fill="rgb(242,110,148)" fill-rule="evenodd" stroke="none" stroke-width="1"/><path id="eztpbppb6do8" d="M724.450000,318.060000L733.450000,329.060000C734.496726,329.624902,735.223579,330.641897,735.419121,331.815147C735.614663,332.988396,735.256935,334.186154,734.450000,335.060000L717.450000,369.060000L717.450000,382.060000C717.917064,383.872800,719.578934,385.119202,721.450000,385.060000C723.190000,384.860000,724.140000,383.140000,724.450000,382.060000C724.960000,380.220000,724.060000,378.670000,723.450000,377.060000C722.732668,375.143253,722.393090,373.105787,722.450000,371.060000L747.450000,335.060000C748.206572,333.869653,748.557400,332.466340,748.450000,331.060000C748.220000,329.060000,746.930000,327.970000,745.450000,326.060000C744.703664,325.115468,744.034823,324.112207,743.450000,323.060000L738.450000,316.060000L735.450000,310.060000L729.450000,310.060000Z" transform="matrix(1 0 0 1 -617.90999999999997 -237.06000000000000)" fill="rgb(242,110,148)" fill-rule="evenodd" stroke="none" stroke-width="1"/><path id="eztpbppb6do9" d="M709.450000,350.060000C714.266960,354.811513,717.435841,361.130965,718.450000,368.007993L721.450000,407.071272L676.450000,407.071272L677.450000,369.063757C677.042444,362.643753,678.815131,356.280520,682.450000,351.115764Z" transform="matrix(1 0 0 1 -617.90999999999997 -237.06000000000000)" fill="rgb(33,150,243)" fill-rule="evenodd" stroke="none" stroke-width="1"/><path id="eztpbppb6do10" d="M721.450000,317.060000L709.450000,350.060000L681.450000,352.060000L680.450000,324.060000C679.231077,323.305935,678.204065,322.278923,677.450000,321.060000C676.008841,318.651803,675.645972,315.748846,676.450000,313.060000L672.450000,311.060000L681.450000,296.060000C681.669069,294.546253,682.370444,293.143503,683.450000,292.060000C685.044715,290.520411,687.250475,289.785158,689.450000,290.060000L694.450000,290.060000C694.402572,291.930452,695.125688,293.738244,696.450000,295.060000C697.783289,296.366734,699.583319,297.086746,701.450000,297.060000C703.303064,297.016871,705.078382,296.306743,706.450000,295.060000C708.193449,293.527185,709.269818,291.374448,709.450000,289.060000L719.450000,289.060000C723.472073,289.648678,726.889387,292.306589,728.450000,296.060000L737.450000,310.060000L724.450000,318.060000L722.450000,315.060000Z" transform="matrix(1 0 0 1 -617.90999999999997 -237.06000000000000)" fill="rgb(255,51,102)" fill-rule="evenodd" stroke="none" stroke-width="1"/><path id="eztpbppb6do11" d="M726.450000,526.060000C725.780000,526.310000,726.050000,528.770000,726.450000,531.060000L748.450000,532.060000L748.450000,529.060000C747.460518,529.265112,746.439482,529.265112,745.450000,529.060000C744.260000,528.810000,743.630000,528.310000,742.450000,528.060000C741.458724,527.873199,740.441276,527.873199,739.450000,528.060000C738.425174,528.313630,737.422039,528.648008,736.450000,529.060000C734.507378,529.737512,732.392622,529.737512,730.450000,529.060000C728.380000,528.190000,727.130000,525.810000,726.450000,526.060000Z" transform="matrix(1 0 0 1 -617.90999999999997 -238.06000000000000)" fill="rgb(255,51,102)" fill-rule="evenodd" stroke="none" stroke-width="1"/><path id="eztpbppb6do12" d="M687.450000,252.060000C697.154336,254.543858,705.010517,261.651831,708.450000,271.060000L708.450000,289.060000L721.450000,289.060000C724.944352,289.836638,727.673362,292.565648,728.450000,296.060000L733.450000,303.060000L733.450000,300.060000C734.417579,298.899634,735.102255,297.530283,735.450000,296.060000C735.922796,293.680852,735.570046,291.211600,734.450000,289.060000C732.230000,284.270000,728.150000,282.990000,725.450000,279.060000C723.723586,276.725245,722.684458,273.954238,722.450000,271.060000C722.450000,267.760000,724.040000,265.460000,724.450000,263.060000C724.830000,260.830000,724.530000,256.740000,722.450000,252.060000C720.841053,248.560863,718.445422,245.480767,715.450000,243.060000C710.450000,238.930000,705.730000,237.250000,701.450000,237.060000C698.450000,236.940000,695.300000,238.240000,691.450000,239.060000C689.172861,239.367630,687.062387,240.422867,685.450000,242.060000C684.395712,243.161489,683.698618,244.555676,683.450000,246.060000C683.270000,247.460000,683.880000,248.500000,683.450000,250.060000C683.060000,251.450000,682.240000,252.060000,681.450000,253.060000C680.368371,254.896899,679.686836,256.941504,679.450000,259.060000C679.130000,261.330000,680.020000,266.560000,682.450000,272.060000C683.744401,274.529283,684.430104,277.272091,684.450000,280.060000C684.328354,281.762101,683.992366,283.442043,683.450000,285.060000C682.570000,287.760000,681.320000,289.370000,680.450000,292.060000C679.820875,293.999320,679.483851,296.021467,679.450000,298.060000Q680.450000,296.060000,681.450000,294.060000C682.167615,292.812687,683.202687,291.777615,684.450000,291.060000C685.376774,290.537716,686.395210,290.198237,687.450000,290.060000L695.450000,290.060000L695.450000,281.060000Z" transform="matrix(1 0 0 1 -617.90999999999997 -235.06000000000000)" fill="rgb(13,71,161)" fill-rule="evenodd" stroke="none" stroke-width="1"/><path id="eztpbppb6do13" d="M695.450000,282.060000L695.450000,290.060000C695.384366,292.435695,696.510063,294.687090,698.450000,296.060000C699.636514,296.825456,701.042861,297.177043,702.450000,297.060000C703.518755,296.987144,704.551282,296.642968,705.450000,296.060000C707.384376,294.682325,708.508485,292.434106,708.450000,290.060000L708.450000,279.060000C709.037238,273.422402,707.621138,267.758004,704.450000,263.060000C702.237214,259.621178,699.124536,256.854353,695.450000,255.060000C692.631569,253.745509,689.559893,253.062914,686.450000,253.060000L685.450000,256.060000C684.850312,259.361302,684.515910,262.705320,684.450000,266.060000C684.499908,268.754497,684.835111,271.436126,685.450000,274.060000C686.450000,278.330000,687.790000,280.470000,689.450000,281.060000C690.450000,281.440000,691.790000,281.120000,693.450000,281.060000C694.110000,281.060000,694.770000,281.060000,695.450000,281.060000Z" transform="matrix(1 0 0 1 -617.90999999999997 -236.06000000000000)" fill="rgb(242,110,148)" fill-rule="evenodd" stroke="none" stroke-width="1"/><path id="eztpbppb6do14" d="M34,20.600000C36.270478,20.600000,38.111064,23.786658,38.111064,27.717600C38.111064,31.648542,36.270478,34.835201,34,34.835201Z" transform="matrix(-0.00094100000000 -1 1 -0.00094100000000 39.73980000000000 325.12299999999999)" fill="rgb(255,51,102)" stroke="none" stroke-width="1"/></g><path id="eztpbppb6do15" d="M316.388256,31.374002L321.080334,27.495312L325.474072,22.396057C325.137490,21.868501,324.975572,21.252793,325.040122,20.633016C325.119318,19.873552,325.573338,18.876485,326.586067,18.490244C327.831231,18.015308,329.231802,18.777484,329.732200,19.819305C329.898728,20.165675,329.969245,20.551645,329.949175,20.958501L330.166150,20.958501C330.813819,21.033633,331.420263,21.306769,331.874825,21.772212C332.275144,22.181508,332.451436,22.577785,332.525750,22.911407C332.607115,23.273780,332.607115,23.735967,332.390140,24.294716C332.208424,24.765312,331.766338,25.507688,330.898439,25.813643C330.088852,26.098713,329.188407,25.917256,328.511718,25.379664L323.575543,29.583837L319.480146,34.466104C319.755774,34.879230,319.923607,35.354787,319.968339,35.849412C320.011462,36.343064,319.931453,36.739612,319.832730,36.988608C319.486926,37.860364,318.618485,38.386835,317.798592,38.480411C317.282457,38.537933,316.761201,38.433675,316.306891,38.182051C315.820325,37.912441,315.300128,37.411466,315.113530,36.690247C315.043257,36.415791,315.024861,36.130624,315.059286,35.849412L314.815190,35.822289C314.510349,35.847724,314.203793,35.801273,313.920169,35.686670C313.715128,35.603129,313.395633,35.402414,313.106514,35.062825C312.742786,34.635477,312.524331,34.103549,312.482711,33.543898C312.443385,32.982980,312.567874,32.339334,312.970905,31.835105C313.215001,31.529963,313.586841,31.244622,314.164265,31.048517C314.305369,30.999412,314.450604,30.963101,314.598215,30.940023C315.009947,30.880235,315.430130,30.926926,315.818698,31.075641Z" transform="matrix(-0.92718385456679 -0.37460659341591 0.37460659341591 -0.92718385456679 432.34409947556276 303.75534444759387)" fill="rgb(255,152,0)" fill-rule="evenodd" stroke="none" stroke-width="1"/><path id="eztpbppb6do16" d="M316.388256,31.374002L321.080334,27.495312L325.474072,22.396057C325.137490,21.868501,324.975572,21.252793,325.040122,20.633016C325.119318,19.873552,325.573338,18.876485,326.586067,18.490244C327.831231,18.015308,329.231802,18.777484,329.732200,19.819305C329.898728,20.165675,329.969245,20.551645,329.949175,20.958501L330.166150,20.958501C330.813819,21.033633,331.420263,21.306769,331.874825,21.772212C332.275144,22.181508,332.451436,22.577785,332.525750,22.911407C332.607115,23.273780,332.607115,23.735967,332.390140,24.294716C332.208424,24.765312,331.766338,25.507688,330.898439,25.813643C330.088852,26.098713,329.188407,25.917256,328.511718,25.379664L323.575543,29.583837L319.480146,34.466104C319.755774,34.879230,319.923607,35.354787,319.968339,35.849412C320.011462,36.343064,319.931453,36.739612,319.832730,36.988608C319.486926,37.860364,318.618485,38.386835,317.798592,38.480411C317.282457,38.537933,316.761201,38.433675,316.306891,38.182051C315.820325,37.912441,315.300128,37.411466,315.113530,36.690247C315.043257,36.415791,315.024861,36.130624,315.059286,35.849412L314.815190,35.822289C314.510349,35.847724,314.203793,35.801273,313.920169,35.686670C313.715128,35.603129,313.395633,35.402414,313.106514,35.062825C312.742786,34.635477,312.524331,34.103549,312.482711,33.543898C312.443385,32.982980,312.567874,32.339334,312.970905,31.835105C313.215001,31.529963,313.586841,31.244622,314.164265,31.048517C314.305369,30.999412,314.450604,30.963101,314.598215,30.940023C315.009947,30.880235,315.430130,30.926926,315.818698,31.075641Z" transform="matrix(-0.99855031307301 0.05382631569955 -0.05382631569955 -0.99855031307301 463.53804483551909 193.60296432170063)" fill="rgb(245,124,0)" fill-rule="evenodd" stroke="none" stroke-width="1"/><path id="eztpbppb6do17" d="M316.388256,31.374002L321.080334,27.495312L325.474072,22.396057C325.137490,21.868501,324.975572,21.252793,325.040122,20.633016C325.119318,19.873552,325.573338,18.876485,326.586067,18.490244C327.831231,18.015308,329.231802,18.777484,329.732200,19.819305C329.898728,20.165675,329.969245,20.551645,329.949175,20.958501L330.166150,20.958501C330.813819,21.033633,331.420263,21.306769,331.874825,21.772212C332.275144,22.181508,332.451436,22.577785,332.525750,22.911407C332.607115,23.273780,332.607115,23.735967,332.390140,24.294716C332.208424,24.765312,331.766338,25.507688,330.898439,25.813643C330.088852,26.098713,329.188407,25.917256,328.511718,25.379664L323.575543,29.583837L319.480146,34.466104C319.755774,34.879230,319.923607,35.354787,319.968339,35.849412C320.011462,36.343064,319.931453,36.739612,319.832730,36.988608C319.486926,37.860364,318.618485,38.386835,317.798592,38.480411C317.282457,38.537933,316.761201,38.433675,316.306891,38.182051C315.820325,37.912441,315.300128,37.411466,315.113530,36.690247C315.043257,36.415791,315.024861,36.130624,315.059286,35.849412L314.815190,35.822289C314.510349,35.847724,314.203793,35.801273,313.920169,35.686670C313.715128,35.603129,313.395633,35.402414,313.106514,35.062825C312.742786,34.635477,312.524331,34.103549,312.482711,33.543898C312.443385,32.982980,312.567874,32.339334,312.970905,31.835105C313.215001,31.529963,313.586841,31.244622,314.164265,31.048517C314.305369,30.999412,314.450604,30.963101,314.598215,30.940023C315.009947,30.880235,315.430130,30.926926,315.818698,31.075641Z" transform="matrix(-0.28183852315846 0.95946185274031 -0.95946185274031 -0.28183852315846 239.11890479366846 -95.85742349020217)" fill="rgb(255,229,127)" fill-rule="evenodd" stroke="none" stroke-width="1"/><script><![CDATA[!function(t,n){"object"==typeof exports&&"undefined"!=typeof module?module.exports=n():"function"==typeof define&&define.amd?define(n):(t=t||self).__SVGATOR_PLAYER__=n()}(this,(function(){"use strict";function t(n){return(t="function"==typeof Symbol&&"symbol"==typeof Symbol.iterator?function(t){return typeof t}:function(t){return t&&"function"==typeof Symbol&&t.constructor===Symbol&&t!==Symbol.prototype?"symbol":typeof t})(n)}function n(t,n){if(!(t instanceof n))throw new TypeError("Cannot call a class as a function")}function r(t,n){for(var r=0;r<n.length;r++){var e=n[r];e.enumerable=e.enumerable||!1,e.configurable=!0,"value"in e&&(e.writable=!0),Object.defineProperty(t,e.key,e)}}function e(t,n,e){return n&&r(t.prototype,n),e&&r(t,e),t}var i=1e-5,u=Math.abs;function o(t){return t}function a(t,n,r){var e=1-r;return 3*r*e*(t*e+n*r)+r*r*r}function l(){var t=arguments.length>0&&void 0!==arguments[0]?arguments[0]:0,n=arguments.length>1&&void 0!==arguments[1]?arguments[1]:0,r=arguments.length>2&&void 0!==arguments[2]?arguments[2]:1,e=arguments.length>3&&void 0!==arguments[3]?arguments[3]:1;return t<0||t>1||r<0||r>1?null:u(t-n)<=i&&u(r-e)<=i?o:function(o){if(o<=0)return t>0?o*n/t:0===n&&r>0?o*e/r:0;if(o>=1)return r<1?1+(o-1)*(e-1)/(r-1):1===r&&t<1?1+(o-1)*(n-1)/(t-1):1;for(var l,f=0,s=1;f<s;){var c=a(t,r,l=(f+s)/2);if(u(o-c)<i)break;c<o?f=l:s=l}return a(n,e,l)}}function f(){return 1}function s(t){return 1===t?1:0}function c(){var t=arguments.length>0&&void 0!==arguments[0]?arguments[0]:1,n=arguments.length>1&&void 0!==arguments[1]?arguments[1]:0;if(1===t){if(0===n)return s;if(1===n)return f}var r=1/t;return function(t){return t>=1?1:(t+=n*r)-t%r}}function v(t){var n=arguments.length>1&&void 0!==arguments[1]?arguments[1]:2;if(Number.isInteger(t))return t;var r=Math.pow(10,n);return Math.round(t*r)/r}var h=Math.PI/180;function y(t,n,r){return t>=.5?r:n}function d(t,n,r){return 0===t||n===r?n:t*(r-n)+n}function g(t,n,r){var e=d(t,n,r);return e<=0?0:e}function m(t,n,r){return 0===t?n:1===t?r:{x:d(t,n.x,r.x),y:d(t,n.y,r.y)}}function p(t,n,r){return 0===t?n:1===t?r:{x:g(t,n.x,r.x),y:g(t,n.y,r.y)}}function b(t,n,r){var e=function(t,n,r){return Math.round(d(t,n,r))}(t,n,r);return e<=0?0:e>=255?255:e}function w(t,n,r){return 0===t?n:1===t?r:{r:b(t,n.r,r.r),g:b(t,n.g,r.g),b:b(t,n.b,r.b),a:d(t,null==n.a?1:n.a,null==r.a?1:r.a)}}function A(t,n,r){if(0===t)return n;if(1===t)return r;var e=n.length;if(e!==r.length)return y(t,n,r);for(var i=[],u=0;u<e;u++)i.push(w(t,n[u],r[u]));return i}function x(t,n,r){var e=n.length;if(e!==r.length)return y(t,n,r);for(var i=new Array(e),u=0;u<e;u++)i[u]=d(t,n[u],r[u]);return i}function k(t,n){for(var r=[],e=0;e<t;e++)r.push(n);return r}function S(t,n){if(--n<=0)return t;var r=(t=Object.assign([],t)).length;do{for(var e=0;e<r;e++)t.push(t[e])}while(--n>0);return t}var _=6,M=/\.0+$/g;function I(t){return Number.isInteger(t)?t+"":t.toFixed(_).replace(M,"")}function E(t){var n=arguments.length>1&&void 0!==arguments[1]?arguments[1]:" ";return t&&t.length?t.map(I).join(n):""}function F(t){return I(t.x)+","+I(t.y)}function B(t){return t?null==t.a||t.a>=1?"rgb("+t.r+","+t.g+","+t.b+")":"rgba("+t.r+","+t.g+","+t.b+","+t.a+")":"transparent"}var j={f:null,i:p,u:function(t,n){return function(r){var e=n(r);t.setAttribute("rx",I(e.x)),t.setAttribute("ry",I(e.y))}}},q={f:null,i:function(t,n,r){return 0===t?n:1===t?r:{width:g(t,n.width,r.width),height:g(t,n.height,r.height)}},u:function(t,n){return function(r){var e=n(r);t.setAttribute("width",I(e.width)),t.setAttribute("height",I(e.height))}}},P=Math.sin,O=Math.cos,z=Math.acos,L=Math.asin,C=Math.tan,R=Math.atan2,T=Math.PI/180,V=180/Math.PI,D=Math.sqrt,N=function(){function t(){var r=arguments.length>0&&void 0!==arguments[0]?arguments[0]:1,e=arguments.length>1&&void 0!==arguments[1]?arguments[1]:0,i=arguments.length>2&&void 0!==arguments[2]?arguments[2]:0,u=arguments.length>3&&void 0!==arguments[3]?arguments[3]:1,o=arguments.length>4&&void 0!==arguments[4]?arguments[4]:0,a=arguments.length>5&&void 0!==arguments[5]?arguments[5]:0;n(this,t),this.m=[r,e,i,u,o,a],this.i=null,this.w=null,this.s=null}return e(t,[{key:"point",value:function(t,n){var r=this.m;return{x:r[0]*t+r[2]*n+r[4],y:r[1]*t+r[3]*n+r[5]}}},{key:"translateSelf",value:function(){var t=arguments.length>0&&void 0!==arguments[0]?arguments[0]:0,n=arguments.length>1&&void 0!==arguments[1]?arguments[1]:0;if(!t&&!n)return this;var r=this.m;return r[4]+=r[0]*t+r[2]*n,r[5]+=r[1]*t+r[3]*n,this.w=this.s=this.i=null,this}},{key:"rotateSelf",value:function(){var t=arguments.length>0&&void 0!==arguments[0]?arguments[0]:0;if(t%=360){var n=P(t*=T),r=O(t),e=this.m,i=e[0],u=e[1];e[0]=i*r+e[2]*n,e[1]=u*r+e[3]*n,e[2]=e[2]*r-i*n,e[3]=e[3]*r-u*n,this.w=this.s=this.i=null}return this}},{key:"scaleSelf",value:function(){var t=arguments.length>0&&void 0!==arguments[0]?arguments[0]:1,n=arguments.length>1&&void 0!==arguments[1]?arguments[1]:1;if(1!==t||1!==n){var r=this.m;r[0]*=t,r[1]*=t,r[2]*=n,r[3]*=n,this.w=this.s=this.i=null}return this}},{key:"skewSelf",value:function(t,n){if(n%=360,(t%=360)||n){var r=this.m,e=r[0],i=r[1],u=r[2],o=r[3];t&&(t=C(t*T),r[2]+=e*t,r[3]+=i*t),n&&(n=C(n*T),r[0]+=u*n,r[1]+=o*n),this.w=this.s=this.i=null}return this}},{key:"resetSelf",value:function(){var t=arguments.length>0&&void 0!==arguments[0]?arguments[0]:1,n=arguments.length>1&&void 0!==arguments[1]?arguments[1]:0,r=arguments.length>2&&void 0!==arguments[2]?arguments[2]:0,e=arguments.length>3&&void 0!==arguments[3]?arguments[3]:1,i=arguments.length>4&&void 0!==arguments[4]?arguments[4]:0,u=arguments.length>5&&void 0!==arguments[5]?arguments[5]:0,o=this.m;return o[0]=t,o[1]=n,o[2]=r,o[3]=e,o[4]=i,o[5]=u,this.w=this.s=this.i=null,this}},{key:"recomposeSelf",value:function(){var t=arguments.length>0&&void 0!==arguments[0]?arguments[0]:null,n=arguments.length>1&&void 0!==arguments[1]?arguments[1]:null,r=arguments.length>2&&void 0!==arguments[2]?arguments[2]:null,e=arguments.length>3&&void 0!==arguments[3]?arguments[3]:null,i=arguments.length>4&&void 0!==arguments[4]?arguments[4]:null;return this.isIdentity||this.resetSelf(),t&&(t.x||t.y)&&this.translateSelf(t.x,t.y),n&&this.rotateSelf(n),r&&(r.x&&this.skewSelf(r.x,0),r.y&&this.skewSelf(0,r.y)),!e||1===e.x&&1===e.y||this.scaleSelf(e.x,e.y),i&&(i.x||i.y)&&this.translateSelf(i.x,i.y),this}},{key:"decompose",value:function(){var t=arguments.length>0&&void 0!==arguments[0]?arguments[0]:0,n=arguments.length>1&&void 0!==arguments[1]?arguments[1]:0,r=this.m,e=r[0]*r[0]+r[1]*r[1],i=[[r[0],r[1]],[r[2],r[3]]],u=D(e);if(0===u)return{origin:{x:r[4],y:r[5]},translate:{x:t,y:n},scale:{x:0,y:0},skew:{x:0,y:0},rotate:0};i[0][0]/=u,i[0][1]/=u;var o=r[0]*r[3]-r[1]*r[2]<0;o&&(u=-u);var a=i[0][0]*i[1][0]+i[0][1]*i[1][1];i[1][0]-=i[0][0]*a,i[1][1]-=i[0][1]*a;var l=D(i[1][0]*i[1][0]+i[1][1]*i[1][1]);if(0===l)return{origin:{x:r[4],y:r[5]},translate:{x:t,y:n},scale:{x:u,y:0},skew:{x:0,y:0},rotate:0};i[1][0]/=l,i[1][1]/=l,a/=l;var f=0;return i[1][1]<0?(f=z(i[1][1])*V,i[0][1]<0&&(f=360-f)):f=L(i[0][1])*V,o&&(f=-f),a=R(a,D(i[0][0]*i[0][0]+i[0][1]*i[0][1]))*V,{origin:{x:r[4],y:r[5]},translate:{x:t,y:n},scale:{x:u,y:l},skew:{x:a,y:0},rotate:f}}},{key:"toString",value:function(){return null===this.s&&(this.s="matrix("+this.m.map($).join(" ")+")"),this.s}},{key:"determinant",get:function(){var t=this.m;return t[0]*t[3]-t[1]*t[2]}},{key:"isIdentity",get:function(){if(null===this.i){var t=this.m;this.i=1===t[0]&&0===t[1]&&0===t[2]&&1===t[3]&&0===t[4]&&0===t[5]}return this.i}}]),t}(),G=/\.0+$/;function $(t){return Number.isInteger(t)?t:t.toFixed(14).replace(G,"")}Object.freeze({M:2,L:2,Z:0,H:1,V:1,C:6,Q:4,T:2,S:4,A:7});function H(t,n,r){return t+(n-t)*r}function Q(t,n,r){var e=arguments.length>3&&void 0!==arguments[3]&&arguments[3],i={x:H(t.x,n.x,r),y:H(t.y,n.y,r)};return e&&(i.a=function(t,n){return Math.atan2(n.y-t.y,n.x-t.x)}(t,n)),i}function U(t,n,r,e){var i=1-e;return i*i*t+2*i*e*n+e*e*r}function Y(t,n,r,e){return 2*(1-e)*(n-t)+2*e*(r-n)}function Z(t,n,r,e){var i=arguments.length>4&&void 0!==arguments[4]&&arguments[4],u={x:U(t.x,n.x,r.x,e),y:U(t.y,n.y,r.y,e)};return i&&(u.a=function(t,n,r,e){return Math.atan2(Y(t.y,n.y,r.y,e),Y(t.x,n.x,r.x,e))}(t,n,r,e)),u}function J(t,n,r,e,i){var u=i*i;return i*u*(e-t+3*(n-r))+3*u*(t+r-2*n)+3*i*(n-t)+t}function K(t,n,r,e,i){var u=1-i;return 3*(u*u*(n-t)+2*u*i*(r-n)+i*i*(e-r))}function W(t,n,r,e,i){var u=arguments.length>5&&void 0!==arguments[5]&&arguments[5],o={x:J(t.x,n.x,r.x,e.x,i),y:J(t.y,n.y,r.y,e.y,i)};return u&&(o.a=function(t,n,r,e,i){return Math.atan2(K(t.y,n.y,r.y,e.y,i),K(t.x,n.x,r.x,e.x,i))}(t,n,r,e,i)),o}function X(t,n,r){var e,i=arguments.length>3&&void 0!==arguments[3]&&arguments[3];if(nt(n)){if(null!=(e=r).start&&!nt(e))return Z(n,r.start,r,t,i)}else if(nt(r)){if(n.end)return Z(n,n.end,r,t,i)}else{if(n.end)return r.start?W(n,n.end,r.start,r,t,i):Z(n,n.end,r,t,i);if(r.start)return Z(n,r.start,r,t,i)}return Q(n,r,t,i)}function tt(t,n,r){var e=X(t,n,r,!0);return e.a=function(t){return arguments.length>1&&void 0!==arguments[1]&&arguments[1]?t+Math.PI:t}(e.a)/h,e}function nt(t){return!t.type||"corner"===t.type}var rt=new N;var et={f:function(t){return t?t.join(" "):""},i:function(n,r,e){if(0===n)return r;if(1===n)return e;var i=r.length;if(i!==e.length)return y(n,r,e);for(var u,o=new Array(i),a=0;a<i;a++){if((u=t(r[a]))!==t(e[a]))return y(n,r,e);if("number"===u)o[a]=d(n,r[a],e[a]);else{if(r[a]!==e[a])return y(n,r,e);o[a]=r[a]}}return o}},it={f:null,i:x,u:function(t,n){return function(r){var e=n(r);t.setAttribute("x1",I(e[0])),t.setAttribute("y1",I(e[1])),t.setAttribute("x2",I(e[2])),t.setAttribute("y2",I(e[3]))}}},ut={f:I,i:d},ot={f:I,i:function(t,n,r){var e=d(t,n,r);return e<=0?0:e>=1?1:e}},at={f:E,i:function(t,n,r){var e,i,u,o=n.length,a=r.length;if(o!==a)if(0===o)n=k(o=a,0);else if(0===a)a=o,r=k(o,0);else{var l=(u=(e=o)*(i=a)/function(t,n){for(var r;n;)r=n,n=t%n,t=r;return t||1}(e,i))<0?-u:u;n=S(n,Math.floor(l/o)),r=S(r,Math.floor(l/a)),o=a=l}for(var f=[],s=0;s<o;s++)f.push(v(g(t,n[s],r[s]),6));return f}};function lt(t,n,r,e,i,u,o,a){return n=function(t,n,r){for(var e,i,u,o=t.length-1,a={},l=0;l<=o;l++)(e=t[l]).e&&(e.e=n(e.e)),e.v&&"g"===(i=e.v).t&&i.r&&(u=r.getElementById(i.r))&&(a[i.r]=u.querySelectorAll("stop"));return a}(t,e,a),function(e){var i,u=r(e,t,ft);return u?"c"===u.t?B(u.v):"g"===u.t?(n[u.r]&&function(t,n){for(var r=0,e=t.length;r<e;r++)t[r].setAttribute("stop-color",B(n[r]))}(n[u.r],u.v),(i=u.r)?"url(#"+i+")":"none"):"none":"none"}}function ft(t,n,r){if(0===t)return n;if(1===t)return r;if(n&&r){var e=n.t;if(e===r.t)switch(n.t){case"c":return{t:e,v:w(t,n.v,r.v)};case"g":if(n.r===r.r)return{t:e,v:A(t,n.v,r.v),r:n.r}}}return y(t,n,r)}var st={blur:p,brightness:g,contrast:g,"drop-shadow":function(t,n,r){return 0===t?n:1===t?r:{blur:p(t,n.blur,r.blur),offset:m(t,n.offset,r.offset),color:w(t,n.color,r.color)}},grayscale:g,"hue-rotate":d,invert:g,opacity:g,saturate:g,sepia:g};function ct(t,n,r){if(0===t)return n;if(1===t)return r;var e=n.length;if(e!==r.length)return y(t,n,r);for(var i,u=[],o=0;o<e;o++){if(n[o].type!==r[o].type)return n;if(!(i=st[n[o].type]))return y(t,n,r);u.push({type:n.type,value:i(t,n[o].value,r[o].value)})}return u}var vt={blur:function(t){return t?function(n){t.setAttribute("stdDeviation",F(n))}:null},brightness:function(t,n,r){return(t=yt(r,n))?function(n){n=I(n),t.map((function(t){return t.setAttribute("slope",n)}))}:null},contrast:function(t,n,r){return(t=yt(r,n))?function(n){var r=I((1-n)/2);n=I(n),t.map((function(t){t.setAttribute("slope",n),t.setAttribute("intercept",r)}))}:null},"drop-shadow":function(t,n,r){var e=r.getElementById(n+"-blur");if(!e)return null;var i=r.getElementById(n+"-offset");if(!i)return null;var u=r.getElementById(n+"-flood");return u?function(t){e.setAttribute("stdDeviation",F(t.blur)),i.setAttribute("dx",I(t.offset.x)),i.setAttribute("dy",I(t.offset.y)),u.setAttribute("flood-color",B(t.color))}:null},grayscale:function(t){return t?function(n){t.setAttribute("values",E(function(t){return[.2126+.7874*(t=1-t),.7152-.7152*t,.0722-.0722*t,0,0,.2126-.2126*t,.7152+.2848*t,.0722-.0722*t,0,0,.2126-.2126*t,.7152-.7152*t,.0722+.9278*t,0,0,0,0,0,1,0]}(n)))}:null},"hue-rotate":function(t){return t?function(n){return t.setAttribute("values",I(n))}:null},invert:function(t,n,r){return(t=yt(r,n))?function(n){n=I(n)+" "+I(1-n),t.map((function(t){return t.setAttribute("tableValues",n)}))}:null},opacity:function(t,n,r){return(t=r.getElementById(n+"-A"))?function(n){return t.setAttribute("tableValues","0 "+I(n))}:null},saturate:function(t){return t?function(n){return t.setAttribute("values",I(n))}:null},sepia:function(t){return t?function(n){return t.setAttribute("values",E(function(t){return[.393+.607*(t=1-t),.769-.769*t,.189-.189*t,0,0,.349-.349*t,.686+.314*t,.168-.168*t,0,0,.272-.272*t,.534-.534*t,.131+.869*t,0,0,0,0,0,1,0]}(n)))}:null}};var ht=["R","G","B"];function yt(t,n){var r=ht.map((function(r){return t.getElementById(n+"-"+r)||null}));return-1!==r.indexOf(null)?null:r}var dt={fill:lt,"fill-opacity":ot,stroke:lt,"stroke-opacity":ot,"stroke-width":ut,"stroke-dashoffset":{f:I,i:d},"stroke-dasharray":at,opacity:ot,transform:function(n,r,e,i){if(!(n=function(n,r){if(!n||"object"!==t(n))return null;var e=!1;for(var i in n)n.hasOwnProperty(i)&&(n[i]&&n[i].length?(n[i].forEach((function(t){t.e&&(t.e=r(t.e))})),e=!0):delete n[i]);return e?n:null}(n,i)))return null;var u=function(t,i,u){var o=arguments.length>3&&void 0!==arguments[3]?arguments[3]:null;return n[t]?e(i,n[t],u):r&&r[t]?r[t]:o};return r&&r.a&&n.o?function(t){var r=e(t,n.o,tt);return rt.recomposeSelf(r,u("r",t,d,0)+r.a,u("k",t,m),u("s",t,m),u("t",t,m)).toString()}:function(t){return rt.recomposeSelf(u("o",t,X,null),u("r",t,d,0),u("k",t,m),u("s",t,m),u("t",t,m)).toString()}},"#filter":function(t,n,r,e,i,u,o,a){if(!n.items||!t||!t.length)return null;var l=function(t,n){var r=(t=t.map((function(t){return t&&vt[t[0]]?(n.getElementById(t[1]),vt[t[0]](n.getElementById(t[1]),t[1],n)):null}))).length;return function(n){for(var e=0;e<r;e++)t[e]&&t[e](n[e].value)}}(n.items,a);return l?(t=function(t,n){return t.map((function(t){return t.e=n(t.e),t}))}(t,e),function(n){l(r(n,t,ct))}):null},"#line":it,points:{f:E,i:x},d:et,r:ut,"#size":q,"#radius":j,_:function(t,n){if(Array.isArray(t))for(var r=0;r<t.length;r++)this[t[r]]=n;else this[t]=n}},gt=function(){function t(r){n(this,t),this.list=r,this.length=r.length}return e(t,[{key:"setAttribute",value:function(t,n){for(var r=this.list,e=0;e<this.length;e++)r[e].setAttribute(t,n)}},{key:"removeAttribute",value:function(t){for(var n=this.list,r=0;r<this.length;r++)n[r].removeAttribute(t)}},{key:"style",value:function(t,n){for(var r=this.list,e=0;e<this.length;e++)r[e].style[t]=n}}]),t}(),mt=/-./g,pt=function(t,n){return n.toUpperCase()};function bt(t){return"function"==typeof t?t:y}function wt(t){return t?"function"==typeof t?t:Array.isArray(t)?function(t){var n=arguments.length>1&&void 0!==arguments[1]?arguments[1]:o;if(!Array.isArray(t))return n;switch(t.length){case 1:return c(t[0])||n;case 2:return c(t[0],t[1])||n;case 4:return l(t[0],t[1],t[2],t[3])||n}return n}(t,null):function(t,n){var r=arguments.length>2&&void 0!==arguments[2]?arguments[2]:o;switch(t){case"linear":return o;case"steps":return c(n.steps||1,n.jump||0)||r;case"bezier":case"cubic-bezier":return l(n.x1||0,n.y1||0,n.x2||0,n.y2||0)||r}return r}(t.type,t.value,null):null}function At(t,n,r){var e=arguments.length>3&&void 0!==arguments[3]&&arguments[3],i=n.length-1;if(t<=n[0].t)return e?[0,0,n[0].v]:n[0].v;if(t>=n[i].t)return e?[i,1,n[i].v]:n[i].v;var u,o=n[0],a=null;for(u=1;u<=i;u++){if(!(t>n[u].t)){a=n[u];break}o=n[u]}return null==a?e?[i,1,n[i].v]:n[i].v:o.t===a.t?e?[u,1,a.v]:a.v:(t=(t-o.t)/(a.t-o.t),o.e&&(t=o.e(t)),e?[u,t,r(t,o.v,a.v)]:r(t,o.v,a.v))}function xt(t,n){var r=arguments.length>2&&void 0!==arguments[2]?arguments[2]:null;return t&&t.length?"function"!=typeof n?null:("function"!=typeof r&&(r=null),function(e){var i=At(e,t,n);return null!=i&&r&&(i=r(i)),i}):null}function kt(t,n){return t.t-n.t}function St(n,r,e,i,u){var o,a="@"===e[0],l="#"===e[0],f=dt[e],s=y;switch(a?(o=e.substr(1),e=o.replace(mt,pt)):l&&(e=e.substr(1)),t(f)){case"function":if(s=f(i,u,At,wt,e,a,r,n),l)return s;break;case"string":s=xt(i,bt(f));break;case"object":if((s=xt(i,bt(f.i),f.f))&&"function"==typeof f.u)return f.u(r,s,e,a,n)}return s?function(t,n,r){if(arguments.length>3&&void 0!==arguments[3]&&arguments[3])return t instanceof gt?function(e){return t.style(n,r(e))}:function(e){return t.style[n]=r(e)};if(Array.isArray(n)){var e=n.length;return function(i){var u=r(i);if(null==u)for(var o=0;o<e;o++)t[o].removeAttribute(n);else for(var a=0;a<e;a++)t[a].setAttribute(n,u)}}return function(e){var i=r(e);null==i?t.removeAttribute(n):t.setAttribute(n,i)}}(r,e,s,a):null}function _t(n,r,e,i){if(!i||"object"!==t(i))return null;var u=null,o=null;return Array.isArray(i)?o=function(t){if(!t||!t.length)return null;for(var n=0;n<t.length;n++)t[n].e&&(t[n].e=wt(t[n].e));return t.sort(kt)}(i):(o=i.keys,u=i.data||null),o?St(n,r,e,o,u):null}function Mt(t,n,r){if(!r)return null;var e=[];for(var i in r)if(r.hasOwnProperty(i)){var u=_t(t,n,i,r[i]);u&&e.push(u)}return e.length?e:null}function It(t,n){if(!n.duration||n.duration<0)return null;var r=function(t,n){if(!n)return null;var r=[];if(Array.isArray(n))for(var e=n.length,i=0;i<e;i++){var u=n[i];if(2===u.length){var o=null;if("string"==typeof u[0])o=t.getElementById(u[0]);else if(Array.isArray(u[0])){o=[];for(var a=0;a<u[0].length;a++)if("string"==typeof u[0][a]){var l=t.getElementById(u[0][a]);l&&o.push(l)}o=o.length?1===o.length?o[0]:new gt(o):null}if(o){var f=Mt(t,o,u[1]);f&&(r=r.concat(f))}}}else for(var s in n)if(n.hasOwnProperty(s)){var c=t.getElementById(s);if(c){var v=Mt(t,c,n[s]);v&&(r=r.concat(v))}}return r.length?r:null}(t,n.elements);return r?function(t,n){var r=arguments.length>2&&void 0!==arguments[2]?arguments[2]:1/0,e=arguments.length>3&&void 0!==arguments[3]?arguments[3]:1,i=arguments.length>4&&void 0!==arguments[4]&&arguments[4],u=arguments.length>5&&void 0!==arguments[5]?arguments[5]:1,o=t.length,a=e>0?n:0;i&&r%2==0&&(a=n-a);var l=null;return function(f,s){var c=f%n,v=1+(f-c)/n;s*=e,i&&v%2==0&&(s=-s);var h=!1;if(v>r)c=a,h=!0,-1===u&&(c=e>0?0:n);else if(s<0&&(c=n-c),c===l)return!1;l=c;for(var y=0;y<o;y++)t[y](c);return h}}(r,n.duration,n.iterations||1/0,n.direction||1,!!n.alternate,n.fill||1):null}var Et=function(){function t(r){var e=arguments.length>1&&void 0!==arguments[1]?arguments[1]:{};n(this,t),this._id=0,this._running=!1,this._animations=r,this.direction=e.direction||1,this.speed=e.speed||1,this.fps=e.fps||100,this.offset=e.offset||0}return e(t,[{key:"_start",value:function(){var t=this,n=arguments.length>0&&void 0!==arguments[0]?arguments[0]:0,r=-1/0,e=null,i={},u=function u(o){t._running=!0,null==e&&(e=o);var a=Math.round((o-e+n)*t.speed),l=t.fps?1e3/t.fps:0;if(a>r+l){t.offset=a,r=a;for(var f=t._animations,s=f.length,c=0,v=0;v<s;v++)i[v]?c++:(i[v]=f[v](a,t.direction),i[v]&&c++);if(c===s)return void t._stop()}t._id=window.requestAnimationFrame(u)};this._id=window.requestAnimationFrame(u)}},{key:"_stop",value:function(){this._id&&window.cancelAnimationFrame(this._id),this._running=!1}},{key:"play",value:function(){this._running||this._start(this.offset)}},{key:"stop",value:function(){this._stop(),this.offset=0;var t=this.direction,n=this._animations;requestAnimationFrame((function(){for(var r=0;r<n.length;r++)n[r](0,t)}))}},{key:"restart",value:function(){this._stop(),this.offset=0,this._start()}},{key:"pause",value:function(){this._stop()}},{key:"reverse",value:function(){this.direction=-this.direction}}],[{key:"build",value:function(n){if(!(n=function(t){if(!t||!t.root||!Array.isArray(t.animations))return null;var n=window.document.getElementById(t.root);if(!n)return null;var r=t.animations.map((function(t){return It(n,t)})).filter((function(t){return!!t}));return r.length?{element:n,animations:r,options:t.options||void 0}:null}(n)))return null;var r=n.element,e=n.options||{},i=new t(n.animations,n.options);return function(t,n,r){var e=arguments.length>3&&void 0!==arguments[3]?arguments[3]:null;if("click"===r){return void n.addEventListener("click",(function r(){n.removeEventListener("click",r),t.play()}))}if("hover"===r)return n.addEventListener("mouseenter",(function(){return t.play()})),void n.addEventListener("mouseleave","freeze"===e?function(){return t.pause()}:function(){return t.stop()});t.play()}(i,r,e.start,e.hover),i}}]),t}();return function(){for(var t=0,n=["ms","moz","webkit","o"],r=0;r<n.length&&!window.requestAnimationFrame;++r)window.requestAnimationFrame=window[n[r]+"RequestAnimationFrame"],window.cancelAnimationFrame=window[n[r]+"CancelAnimationFrame"]||window[n[r]+"CancelRequestAnimationFrame"];window.requestAnimationFrame||(window.requestAnimationFrame=function(n){var r=Date.now(),e=Math.max(0,16-(r-t)),i=window.setTimeout((function(){n(r+e)}),e);return t=r+e,i},window.cancelAnimationFrame=window.clearTimeout)}(),Et}));
__SVGATOR_PLAYER__.build({"root":"eztpbppb6do1","animations":[{"duration":800,"direction":1,"iterations":0,"fill":1,"alternate":false,"elements":{"eztpbppb6do15":{"transform":{"data":{"o":{"x":143.95,"y":156.58370953000002,"type":"corner"},"t":{"x":-322.5258175899999,"y":-28.420832580000365}},"keys":{"r":[{"t":0,"v":-158},{"t":300,"v":-274},{"t":600,"v":-158}]}}},"eztpbppb6do16":{"transform":{"data":{"o":{"x":139.95,"y":182.58370953000002,"type":"corner"},"t":{"x":-322.5258175899999,"y":-28.420832580000365}},"keys":{"r":[{"t":0,"v":-183.08551186921235},{"t":300,"v":-105},{"t":600,"v":-183.09}]}}},"eztpbppb6do17":{"transform":{"data":{"o":{"x":120.94999999999999,"y":205.58370953000002,"type":"corner"},"t":{"x":-322.5258175899999,"y":-28.420832580000365}},"keys":{"r":[{"t":0,"v":-253.6300357930537},{"t":300,"v":-352},{"t":600,"v":-253}]}}}}}],"options":{"start":"load","hover":"freeze"}})]]></script></svg>