<svg xmlns="http://www.w3.org/2000/svg" viewBox="0 0 497.54 472.41"><defs><style>.cls-1{fill:#2196f3;}</style></defs><title>Asset 2</title><g id="Layer_2" data-name="Layer 2"><g id="Layer_3" data-name="Layer 3"><path class="cls-1" d="M497.54,0A316.84,316.84,0,0,1,452,59.44c-10.23,10.49-56.55,56.5-135.29,83-16.07,5.42-33.26,9.08-67.64,16.4-66.38,14.14-74.21,10.5-118.89,21.52-81.2,20-103,43.81-110.69,53.3C12.7,242.06.29,257.83,0,279.8c-.31,24.75,15,43.27,21.53,51.25,11.2,13.59,23.18,21,32.8,26.64,34.69,20.23,64.24,31.42,97.36,44.08,62.31,23.8,57.48,22.32,91.22,34.84,25.7,9.54,53.71,19.93,64.57,23.58,34.65,11.62,93.72,21.25,190.06-2.05Z"/></g></g></svg>