<svg xmlns="http://www.w3.org/2000/svg" viewBox="0 0 460.01 314.26"><defs><style>.cls-1{fill:#f36;}</style></defs><title>Asset 1</title><g id="Layer_2" data-name="Layer 2"><g id="Layer_2-2" data-name="Layer 2"><path class="cls-1" d="M103,11.23c-21.25,6.8-61.42,20.26-86,58-5.55,8.53-16.56,25.91-17,50-.57,31.79,17.66,54.41,27,66,20.24,25.1,44.17,35.93,58,42,43.53,19.09,83.33,15.1,102,13,21.3-2.4,17.8-5.6,39-8,14.72-1.67,53-5.55,96,12,27.36,11.16,43.36,17.68,53,34,3.68,6.22,8.54,17.43,21,27,4.69,3.6,11.12,8.53,19,9,18,1.06,32.31-21.73,35-26,31.84-50.56-21.94-141.36-29-153-33.41-55.11-77.57-84.2-90-92C325,39.43,217.91-25.54,103,11.23Z"/></g></g></svg>